<svg xmlns="http://www.w3.org/2000/svg" xmlns:xlink="http://www.w3.org/1999/xlink" viewBox="0,0,256,256" width="50px" height="50px" fill-rule="nonzero"><g fill="#006aff" fill-rule="nonzero" stroke="none" stroke-width="1" stroke-linecap="butt" stroke-linejoin="miter" stroke-miterlimit="10" stroke-dasharray="" stroke-dashoffset="0" font-family="none" font-weight="none" font-size="none" text-anchor="none" style="mix-blend-mode: normal"><g transform="scale(5.12,5.12)"><path d="M11,4c-3.9,0 -7,3.1 -7,7v28c0,3.9 3.1,7 7,7h28c3.9,0 7,-3.1 7,-7v-24.09961l-2,2.40039v21.69922c0,2.8 -2.2,5 -5,5h-28c-2.8,0 -5,-2.2 -5,-5v-28c0,-2.8 2.2,-5 5,-5h26.19922l1.70117,-2zM43.23633,7.75391l-19.32227,22.80078l-8.13281,-7.58594l-1.36328,1.46289l9.66602,9.01563l20.67969,-24.40039z"></path></g></g></svg>