<svg xmlns="http://www.w3.org/2000/svg" xmlns:xlink="http://www.w3.org/1999/xlink" viewBox="0,0,256,256" width="50px" height="50px" fill-rule="nonzero"><g fill="#006aff" fill-rule="nonzero" stroke="none" stroke-width="1" stroke-linecap="butt" stroke-linejoin="miter" stroke-miterlimit="10" stroke-dasharray="" stroke-dashoffset="0" font-family="none" font-weight="none" font-size="none" text-anchor="none" style="mix-blend-mode: normal"><g transform="scale(5.12,5.12)"><path d="M11,4c-3.84545,0 -7,3.15455 -7,7v28c0,3.84546 3.15455,7 7,7h28c3.84546,0 7,-3.15454 7,-7v-28c0,-3.84545 -3.15454,-7 -7,-7zM11,6h28c2.75455,0 5,2.24545 5,5v28c0,2.75455 -2.24545,5 -5,5h-28c-2.75455,0 -5,-2.24545 -5,-5v-28c0,-2.75455 2.24545,-5 5,-5z"></path></g></g></svg>